<svg xmlns="http://www.w3.org/2000/svg" width="430" height="430" style="width:100%;height:100%;transform:translate3d(0,0,0);content-visibility:visible" viewBox="0 0 430 430"><defs><clipPath id="a"><path d="M0 0h430v430H0z"/></clipPath><clipPath id="d"><path d="M0 0h430v430H0z"/></clipPath><clipPath id="c"><path d="M0 0h430v430H0z"/></clipPath><clipPath id="b"><path d="M0 0h430v430H0z"/></clipPath></defs><g clip-path="url(#a)"><g clip-path="url(#b)" style="display:none"><g style="display:none"><path class="primary"/><path class="primary" style="mix-blend-mode:multiply"/><path class="secondary"/><path class="secondary" style="mix-blend-mode:multiply"/><path class="secondary" style="mix-blend-mode:multiply"/><path class="primary" style="mix-blend-mode:multiply"/><path class="primary" style="mix-blend-mode:multiply"/></g><g style="display:none"><path class="primary"/><path class="primary" style="mix-blend-mode:multiply"/><path class="secondary"/><path class="secondary" style="mix-blend-mode:multiply"/><path class="secondary" style="mix-blend-mode:multiply"/><path class="primary" style="mix-blend-mode:multiply"/><path class="primary" style="mix-blend-mode:multiply"/><path class="secondary"/><path class="secondary" style="mix-blend-mode:multiply"/></g><g style="display:none"><path class="tertiary"/><path class="tertiary" style="mix-blend-mode:multiply"/></g></g><g clip-path="url(#c)" style="display:block"><g style="display:block"><path fill="#EBE6EF" d="m210.266 66.634 60.803 35.472-70.852 18.984-60.916-35.441zM55 160l-7.764-28.978c-2.859-10.67 3.473-21.635 14.142-24.494l13.8-3.698 60.688 35.502zM356.331 48.2l6.988 26.08a3 3 0 0 1-2.12 3.675l-25.854 6.927-60.586-35.53 57.077-15.294c10.67-2.86 21.636 3.473 24.495 14.142" class="primary"/><g opacity=".5" style="mix-blend-mode:multiply"><path fill="#EBE6EF" d="M90.366 98.762c-10.669 2.859-17 13.826-14.142 24.495l7.764 28.977L55 160.002l-7.764-28.978c-2.859-10.67 3.473-21.636 14.142-24.495z" class="primary" opacity="1"/></g><path fill="#3A3347" d="M140.763 85.26 202 120.617l-67.615 18.118-61.237-35.356zm135.23-36.234 61.237 35.356-67.615 18.117-61.237-35.355z" class="secondary"/><g opacity=".4" style="mix-blend-mode:multiply"><path fill="#3A3347" d="M140.763 85.26 202 120.617l-67.615 18.118-61.237-35.356zm135.23-36.234 61.237 35.356-67.615 18.117-61.237-35.355z" class="secondary" opacity="1"/></g><g opacity=".5" style="mix-blend-mode:multiply"><path fill="#3A3347" d="m73.148 103.378 61.237 35.355 33.808-9.058-61.238-35.356zm135.23-36.235 61.237 35.356 33.807-9.06-61.237-35.354z" class="secondary" opacity="1"/></g><g opacity=".5" style="mix-blend-mode:multiply"><path fill="#EBE6EF" d="m140.76 85.257 61.236 35.355 33.807-9.06-61.237-35.354z" class="primary" opacity="1"/></g><g opacity=".5" style="mix-blend-mode:multiply"><path fill="#EBE6EF" d="M337.227 84.377 275.99 49.022l33.807-9.06 52.44 30.277 1.082 4.043a3 3 0 0 1-2.12 3.674z" class="primary" opacity="1"/></g></g><g style="display:block"><path fill="#EBE6EF" d="m276.553 160-55 55h-74.764l55-55zM55 215v-55h82.662l-55 55zm320-52v52h-87.193l55.001-55H372a3 3 0 0 1 3 3" class="primary"/><g opacity=".5" style="mix-blend-mode:multiply"><path fill="#EBE6EF" d="M85 160H55v55h30z" class="primary" opacity="1"/></g><path fill="#3A3347" d="m275 160-50 50h70l50-50zm-140 0-50 50h70l50-50z" class="secondary"/><g opacity=".4" style="mix-blend-mode:multiply"><path fill="#3A3347" d="m275 160-50 50h70l50-50zm-140 0-50 50h70l50-50z" class="secondary" opacity="1"/></g><g opacity=".5" style="mix-blend-mode:multiply"><path fill="#3A3347" d="m275 160-50 50h35l50-50zm-140 0-50 50h35l50-50z" class="secondary" opacity="1"/></g><g opacity=".5" style="mix-blend-mode:multiply"><path fill="#EBE6EF" d="m205.002 160-50 50h35l50-50z" class="primary" opacity="1"/></g><g opacity=".5" style="mix-blend-mode:multiply"><path fill="#EBE6EF" d="m345.002 160-50 50h35l44.996-44.995V163a3 3 0 0 0-3-3z" class="primary" opacity="1"/></g><path fill="#3A3347" d="M375 210H55v140c0 11.046 8.954 20 20 20h280c11.046 0 20-8.954 20-20z" class="secondary"/><g opacity=".5" style="mix-blend-mode:multiply"><path fill="#3A3347" d="M55 210h30v140c0 11.046 8.954 20 20 20H75c-11.046 0-20-8.954-20-20z" class="secondary" opacity="1"/></g></g><g style="display:block"><path fill="#F24C00" d="m199.8 331.4 52-39a3 3 0 0 0 0-4.8l-52-39c-1.978-1.483-4.8-.072-4.8 2.4v78c0 2.472 2.822 3.883 4.8 2.4" class="tertiary"/><g opacity=".5" style="mix-blend-mode:multiply"><path fill="#F24C00" d="M210 256.25v67.5l-10.2 7.65c-1.978 1.483-4.8.072-4.8-2.4v-78c0-2.472 2.822-3.883 4.8-2.4z" class="tertiary" opacity="1"/></g></g></g><g clip-path="url(#d)" style="display:none"><g style="display:none"><path class="primary"/><path class="primary" style="mix-blend-mode:multiply"/><path class="secondary"/><path class="secondary" style="mix-blend-mode:multiply"/><path class="secondary" style="mix-blend-mode:multiply"/><path class="primary" style="mix-blend-mode:multiply"/><path class="primary" style="mix-blend-mode:multiply"/><path class="secondary"/><path class="secondary" style="mix-blend-mode:multiply"/></g><g style="display:none"><path class="primary"/><path class="primary" style="mix-blend-mode:multiply"/><path class="secondary"/><path class="secondary" style="mix-blend-mode:multiply"/><path class="secondary" style="mix-blend-mode:multiply"/><path class="primary" style="mix-blend-mode:multiply"/><path class="primary" style="mix-blend-mode:multiply"/></g><g style="display:none"><path class="tertiary"/><path class="tertiary" style="mix-blend-mode:multiply"/></g></g></g></svg>